<?xml version="1.0" encoding="utf-8"?>
<!-- Generator: Adobe Illustrator 24.2.0, SVG Export Plug-In . SVG Version: 6.00 Build 0)  -->
<svg version="1.1" id="Layer_1" xmlns="http://www.w3.org/2000/svg" xmlns:xlink="http://www.w3.org/1999/xlink" x="0px" y="0px"
	 viewBox="0 0 584.2 506" style="enable-background:new 0 0 584.2 506;" xml:space="preserve">
<style type="text/css">
	.st0{fill:#FFFFFF;}
</style>
<g>
	<polygon class="st0" points="293,505.5 438.2,254.1 583.3,505.5 	"/>
	<path d="M438.2,255.1L582.4,505H293.9L438.2,255.1 M438.2,253.1L292.2,506h292L438.2,253.1L438.2,253.1z"/>
</g>
<g>
	<polygon class="st0" points="0.9,505.5 146.1,254.1 291.2,505.5 	"/>
	<path d="M146.1,255.1L290.3,505H1.8L146.1,255.1 M146.1,253.1L0.1,506h292L146.1,253.1L146.1,253.1z"/>
</g>
<g>
	<polygon class="st0" points="0.9,0.5 291.1,0.5 146,251.9 	"/>
	<path d="M290.3,1L146,250.9L1.7,1H290.3 M292,0H0l146,252.9L292,0L292,0z"/>
</g>
<g>
	<polygon class="st0" points="293,0.5 583.2,0.5 438.1,251.9 	"/>
	<path d="M582.4,1L438.1,250.9L293.8,1H582.4 M584.1,0h-292l146,252.9L584.1,0L584.1,0z"/>
</g>
</svg>
